# xmcd
# Copyright (C) 1995-1998 Ti Kan
#
# Track frame offsets:
#       150
#       2232
#       30626
#       42367
#       69201
#       89674
#       92058
#       93023
#       121721
#       142637
#       176875
#
# Disc length: 2385 seconds
#
# Revision: 0
# Processed by: cddbd v1.5.2PL0 Copyright (c) Steve Scherf et al.
# Submitted via: CD-Transfer v1.0
#
DISCID=80094f0b
DTITLE=Gong - Daevid Allen
DYEAR=71
DGENRE=
TTITLE0=Radio Gnome
TTITLE1=You Can't Kill Me
TTITLE2=I've Been Stone Before
TTITLE3=Mister Long Shanks: O Mother, I'm Your Fantasy
TTITLE4=Dynamite: I'm Your Animal
TTITLE5=Wet Cheese Delirium
TTITLE6=Squeezing Sponges Over Policemen's Heads
TTITLE7=Foghat Digs Holes In Space
TTITLE8=Tried So Hard
TTITLE9=Tropical Fish: Selene
TTITLE10=Radio Gnome, The Second
EXTD=
EXTT0=
EXTT1=
EXTT2=
EXTT3=
EXTT4=
EXTT5=
EXTT6=
EXTT7=
EXTT8=
EXTT9=
EXTT10=
PLAYORDER=
